<svg width="700" height="634" viewBox="0 0 700 634" fill="none" xmlns="http://www.w3.org/2000/svg">
<path d="M52.7997 21.3334C45.0663 24.4 38.2663 30.5334 34.2663 38C31.333 43.2 31.333 44.2667 31.333 106.667V170L34.933 176C39.4663 183.867 43.1997 187.2 51.0663 190.533C57.0663 193.067 60.133 193.333 92.3997 193.333H127.333L131.866 185.733C139.2 173.6 142 169.467 142.8 169.333C143.333 169.333 148.8 174.8 155.2 181.333L166.533 193.333L203.866 193.067L241.2 192.667L234.133 172C228 154.133 217.2 125.733 210.133 108.933L208 104L215.066 99.4667C226.533 92.1334 241.066 84.6667 242 85.6C244.933 88.5334 267.6 147.867 276.133 174.933L282 193.333H306.933H332L332.266 126.933L332.666 60.6667L351.733 60.2667L370.666 59.8667V126.667V193.333L396.266 193.067L421.733 192.667L428 172.667C438.666 138.4 458.933 87.0667 462.133 85.7334C463.866 85.0667 477.066 91.8667 488.933 99.4667L496 104L493.866 108.933C485.733 127.6 462.666 189.6 462.666 192.8C462.666 193.067 479.333 193.333 499.733 193.333H536.666L548.666 181.333C558.266 171.6 560.8 169.733 562.4 171.067C563.466 171.867 567.066 177.2 570.266 182.933L576.4 193.333H611.866H647.466L654.4 189.867C663.2 185.467 670 176.933 672 167.6C673.066 162.8 673.333 142.4 673.066 102.667C672.666 47.0667 672.533 44.4 669.866 38.6667C668.4 35.3334 664.666 30.4 661.6 27.7334C650.8 18 675.066 18.6667 350.8 18.6667C66.533 18.8 59.1997 18.8 52.7997 21.3334Z" fill="url(#paint0_linear_529_3660)"/>
<path d="M53.5997 229.2C45.5997 232 38.533 238.133 34.2663 246C31.333 251.2 31.333 252.267 31.333 314.667C31.333 372 31.5997 378.4 33.5997 382.133C37.733 389.733 43.0663 395.067 49.9997 398.133C56.533 401.2 57.333 401.333 99.9997 401.333H143.466L148.133 396.267C164.133 379.467 184.4 349.867 190.533 334.4C192.8 328.933 194.933 321.2 195.466 317.2C197.333 299.867 182.933 272.267 153.6 236.933L144.933 226.667H102.8C65.4663 226.8 59.8663 227.067 53.5997 229.2Z" fill="url(#paint1_linear_529_3660)"/>
<path d="M198.266 230.267C219.733 262.267 223.6 269.2 229.2 286.4C234.533 302.267 235.466 312.667 232.8 327.067C228.933 347.733 219.866 365.467 196.133 398.8C194.4 401.333 194.8 401.333 222.133 401.067L249.866 400.667L252.933 388.667C262.8 350 265.866 315.333 262.133 285.867C260 269.333 255.333 244.4 252 232.133L250.533 226.667H223.2H195.733L198.266 230.267Z" fill="url(#paint2_linear_529_3660)"/>
<path d="M291.2 228.933C292.533 233.2 298.4 264.4 300.133 276.667C301.067 283.2 302 299.467 302 312.667C302 338.533 300.267 353.867 293.467 384.267L289.733 401.333H310.933H332V314V226.667H311.2C292.133 226.667 290.533 226.8 291.2 228.933Z" fill="url(#paint3_linear_529_3660)"/>
<path d="M370.666 314V401.333H392.399H414.266L410.399 384.933C399.066 335.333 398.533 300.667 408.666 247.2C410.533 237.6 411.999 229.067 411.999 228.267C411.999 227.067 405.999 226.667 391.333 226.667H370.666V314Z" fill="url(#paint4_linear_529_3660)"/>
<path d="M452.666 228.267C450.8 233.333 443.6 270.8 441.866 284C438.266 313.333 440.133 341.467 448.133 376.667C450.266 386.133 452.4 395.6 452.933 397.6L453.733 401.333H481.6H509.6L504.933 394.933C489.6 374.133 480.4 357.467 474.533 340C470.8 328.933 470.266 325.6 470.266 313.333C470.266 291.2 476.933 273.333 496.133 244.667C501.6 236.533 506.533 229.2 507.066 228.267C507.866 227.067 502.266 226.667 480.666 226.667C460 226.667 453.066 227.067 452.666 228.267Z" fill="url(#paint5_linear_529_3660)"/>
<path d="M549.733 237.6C525.333 266.8 511.2 290.8 508.533 307.733C506.667 319.2 514.133 340.133 526.8 358.933C534 369.6 548.4 388.267 555.2 395.6L560.4 401.333H603.867H647.467L654.4 397.867C658.267 396 663.2 392.267 665.333 389.6C673.067 380.267 673.333 377.333 673.333 313.867C673.333 259.067 673.2 255.733 670.667 248.8C667.067 239.467 658.8 231.6 649.2 228.8C643.467 227.067 634.533 226.667 600.533 226.667H558.933L549.733 237.6Z" fill="url(#paint6_linear_529_3660)"/>
<path d="M56.6663 437.2C47.1997 439.6 39.1997 446 34.133 455.333C31.333 460.533 31.333 461.733 31.333 523.333V586L34.3997 592C38.7997 600.4 42.2663 603.867 49.9997 607.467L56.6663 610.667H351.733C613.6 610.667 647.333 610.4 651.6 608.667C659.466 605.333 664.4 600.8 668.666 593.2L672.666 586V523.333V460.667L669.066 454.533C667.066 451.2 663.333 446.533 660.8 444.267C652.533 437.067 646.133 436 609.2 436H576.266L569.066 447.333L562 458.667L550.666 447.333L539.333 436H502.266H465.066L466.133 440.267C467.6 447.067 480.4 481.6 488.666 501.467C492.8 511.333 496.533 520.267 496.8 521.467C497.333 522.933 494.933 525.067 489.066 528.8C473.466 538.4 464.933 542.8 463.866 541.6C460.4 538 428.8 455.467 426.133 443.067C425.6 440.8 424.4 438.133 423.466 437.333C422.266 436.4 413.2 436 396.533 436.267L371.333 436.667L370.933 502.133L370.666 567.6L360.266 568.267C354.666 568.533 346.133 568.533 341.333 568.133L332.666 567.333L332.266 501.6L332 436H306.133H280.266L273.866 454.933C264.666 482.8 242.933 538.267 240 541.733C239.2 542.667 226.933 536.4 213.6 528C208.8 524.933 206.666 522.8 207.2 521.467C207.466 520.267 212.533 507.6 218.4 493.333C228 469.467 238.666 440.133 238.666 437.2C238.666 436.533 222.933 436 201.733 436H164.666L153.333 447.333L142 458.667L135.2 447.733L128.4 436.667L94.533 436.4C75.8663 436.4 58.933 436.667 56.6663 437.2Z" fill="url(#paint7_linear_529_3660)"/>
<defs>
<linearGradient id="paint0_linear_529_3660" x1="352.248" y1="18.657" x2="352.248" y2="193.333" gradientUnits="userSpaceOnUse">
<stop stop-color="#FFAF01"/>
<stop offset="1" stop-color="#F81C26"/>
</linearGradient>
<linearGradient id="paint1_linear_529_3660" x1="113.48" y1="401.333" x2="113.48" y2="226.667" gradientUnits="userSpaceOnUse">
<stop stop-color="#F21C28"/>
<stop offset="1" stop-color="#F92E22"/>
</linearGradient>
<linearGradient id="paint2_linear_529_3660" x1="229.608" y1="401.181" x2="229.608" y2="226.667" gradientUnits="userSpaceOnUse">
<stop stop-color="#F21C28"/>
<stop offset="1" stop-color="#F92E22"/>
</linearGradient>
<linearGradient id="paint3_linear_529_3660" x1="310.867" y1="401.333" x2="310.867" y2="226.667" gradientUnits="userSpaceOnUse">
<stop stop-color="#F21C28"/>
<stop offset="1" stop-color="#F92E22"/>
</linearGradient>
<linearGradient id="paint4_linear_529_3660" x1="392.466" y1="401.333" x2="392.466" y2="226.667" gradientUnits="userSpaceOnUse">
<stop stop-color="#F21C28"/>
<stop offset="1" stop-color="#F92E22"/>
</linearGradient>
<linearGradient id="paint5_linear_529_3660" x1="474.855" y1="401.333" x2="474.855" y2="226.667" gradientUnits="userSpaceOnUse">
<stop stop-color="#F21C28"/>
<stop offset="1" stop-color="#F92E22"/>
</linearGradient>
<linearGradient id="paint6_linear_529_3660" x1="590.791" y1="401.333" x2="590.791" y2="226.667" gradientUnits="userSpaceOnUse">
<stop stop-color="#F21C28"/>
<stop offset="1" stop-color="#F92E22"/>
</linearGradient>
<linearGradient id="paint7_linear_529_3660" x1="352" y1="436" x2="352" y2="610.667" gradientUnits="userSpaceOnUse">
<stop stop-color="#F81C26"/>
<stop offset="1" stop-color="#641F47"/>
</linearGradient>
</defs>
</svg>
