<svg width="514" height="682" viewBox="0 0 514 682" fill="none" xmlns="http://www.w3.org/2000/svg">
<path d="M73.533 1.46676C69.6663 2.13343 62.733 4.0001 57.7997 5.73343C32.733 14.9334 14.5997 33.0668 4.46634 59.2001L0.333008 70.0001V340.667V611.333L4.06634 622C13.7997 649.467 33.533 668.8 61.6663 678.4L72.333 682H253C450.466 682 439.4 682.4 457.666 674C482.6 662.533 499.4 642.133 506.333 615.2C509 605.2 509 600 509 402.4V200H413H317L316.733 100.267L316.333 0.666764L198.333 0.533431C133.4 0.400098 77.2663 0.800098 73.533 1.46676ZM161 385.333C183 389.467 195.8 406.133 193.933 428C191.8 453.333 174.733 465.333 140.733 465.333H130.333V487.333V509.333H113.666H96.9997V447.6C96.9997 413.6 97.3997 385.333 97.933 384.933C99.2663 383.467 153.266 383.867 161 385.333ZM273 387.333C297.266 395.067 311.4 410.133 315.533 432.533C321 462.8 310.2 488.533 286.733 501.067C273.8 508 265.133 509.333 234.066 509.333H206.333V447.6C206.333 413.6 206.733 385.333 207.4 384.8C207.933 384.133 221.266 384 237 384.4C259.266 384.8 267.266 385.467 273 387.333ZM421.666 398V411.333L393.4 411.733L365 412V422V432H387.666H410.333V445.333V458.667H387.666H365V484V509.333H349H333V446.667V384L377.4 384.267L421.666 384.667V398Z" fill="url(#paint0_linear_528_3659)"/>
<path d="M130.333 424.667V437.333H140.2C145.533 437.333 151.8 436.667 154.2 435.867C163.266 432.667 164.866 419.6 156.6 414.667C153.266 412.533 149.933 412 141.4 412H130.333V424.667Z" fill="url(#paint1_linear_528_3659)"/>
<path d="M238.333 446.667V481.333H248.066C272.733 481.333 284.6 469.2 284.066 444.933C283.533 423.733 269.933 412 245.666 412H238.333V446.667Z" fill="url(#paint2_linear_528_3659)"/>
<path d="M420.968 89.1861L501.305 174.516C506.111 179.621 502.492 188 495.48 188L337 188C332.582 188 329 184.418 329 180L329 10.3939C329 3.12014 337.921 -0.379219 342.866 4.9545L420.968 89.1861Z" fill="url(#paint3_linear_528_3659)"/>
<defs>
<linearGradient id="paint0_linear_528_3659" x1="254.666" y1="0.507812" x2="254.666" y2="682.003" gradientUnits="userSpaceOnUse">
<stop stop-color="#FFAF01"/>
<stop offset="0.5" stop-color="#F81C26"/>
<stop offset="1" stop-color="#641F47"/>
</linearGradient>
<linearGradient id="paint1_linear_528_3659" x1="146.159" y1="412" x2="146.159" y2="437.333" gradientUnits="userSpaceOnUse">
<stop stop-color="#FFAF01"/>
<stop offset="0.5" stop-color="#F81C26"/>
<stop offset="1" stop-color="#641F47"/>
</linearGradient>
<linearGradient id="paint2_linear_528_3659" x1="261.208" y1="412" x2="261.208" y2="481.333" gradientUnits="userSpaceOnUse">
<stop stop-color="#FFAF01"/>
<stop offset="0.5" stop-color="#F81C26"/>
<stop offset="1" stop-color="#641F47"/>
</linearGradient>
<linearGradient id="paint3_linear_528_3659" x1="421.5" y1="-10" x2="421.5" y2="188" gradientUnits="userSpaceOnUse">
<stop stop-color="#FEA404"/>
<stop offset="1" stop-color="#FD7A0F"/>
</linearGradient>
</defs>
</svg>
